<svg xmlns="http://www.w3.org/2000/svg" viewBox="0 0 64 64">
  <defs>
    <linearGradient id="gradient" x1="0%" y1="0%" x2="100%" y2="100%">
      <stop offset="0%" style="stop-color:#ff758c" />
      <stop offset="100%" style="stop-color:#ff7eb3" />
    </linearGradient>
  </defs>
  <path fill="url(#gradient)" d="M32 59.4c-1.2 0-2.4-.4-3.4-1.3-2.3-2-22.6-19.8-25.9-32.3C.9 19.7 2.2 13.3 5.9 8.3 9.9 2.8 16.7 0 23.6 0c4.9 0 9.5 1.6 13.1 4.6.5.4 1.2.4 1.7 0C42 1.6 46.6 0 51.5 0c6.9 0 13.7 2.8 17.7 8.3 3.7 5 5 11.4 3.2 17.5-3.3 12.5-23.6 30.3-25.9 32.3-1.1.9-2.3 1.3-3.5 1.3z"/>
  <path fill="#fff" d="M32 54.4c-.8 0-1.6-.3-2.3-.9-1.5-1.3-15.1-13.2-17.3-21.5-.8-3.1 0-7.1 2.5-10.5 2.7-3.7 7.2-5.5 11.7-5.5 3.3 0 6.3 1.1 8.7 3.1.3.3.8.3 1.1 0 2.4-2 5.4-3.1 8.7-3.1 4.5 0 9 1.8 11.7 5.5 2.5 3.4 3.3 7.4 2.5 10.5-2.2 8.3-15.8 20.2-17.3 21.5-.6.6-1.4.9-2.3.9z"/>
</svg> 